<?xml version="1.0" encoding="UTF-8" standalone="no"?>
<svg width="50px" height="16px" viewBox="0 0 50 16" version="1.1" xmlns="http://www.w3.org/2000/svg" xmlns:xlink="http://www.w3.org/1999/xlink" xmlns:sketch="http://www.bohemiancoding.com/sketch/ns">
    <!-- Generator: Sketch 3.3.2 (12043) - http://www.bohemiancoding.com/sketch -->
    <title>Shape + Shape + Shape</title>
    <desc>Created with Sketch.</desc>
    <defs></defs>
    <g id="Page-1" stroke="none" stroke-width="1" fill="none" fill-rule="evenodd" sketch:type="MSPage">
        <g id="Shape-+-Shape-+-Shape" sketch:type="MSLayerGroup">
            <path d="M14.9114533,3.98006378 C14.1968109,2.75575399 13.2274442,1.78638724 12.0030979,1.07178132 C10.778533,0.357211845 9.44174943,0 7.99172665,0 C6.54184966,0 5.20466515,0.357211845 3.98031891,1.07178132 C2.75589977,1.7862779 1.78653303,2.75564465 1.07189066,3.98006378 C0.357211845,5.20455581 0,6.54174032 0,7.99150797 C0,9.44134852 0.357321185,10.7783144 1.07178132,12.0028793 C1.78638724,13.2271891 2.75575399,14.1965558 3.98017312,14.9112346 C5.20466515,15.6257677 6.54174032,15.9830159 7.99158087,15.9830159 C9.44142141,15.9830159 10.7786424,15.6257677 12.0030615,14.9112346 C13.2274077,14.1968109 14.196738,13.2271891 14.9113075,12.0028793 C15.6257677,10.7784237 15.9829431,9.44127563 15.9829431,7.99150797 C15.9829795,6.54159453 15.6257677,5.20437358 14.9114533,3.98006378 L14.9114533,3.98006378 Z M13.1733941,6.77405011 L7.52328018,12.4242005 C7.3914533,12.5561367 7.232,12.6220319 7.04459226,12.6220319 C6.86425513,12.6220319 6.70822779,12.5561367 6.57636446,12.4242005 L2.80940319,8.65745786 C2.68468337,8.53248292 2.62217768,8.37671071 2.62217768,8.18923007 C2.62217768,7.99504328 2.68446469,7.8353713 2.80940319,7.71046925 L3.75631891,6.77405011 C3.88829157,6.64225968 4.04417312,6.57636446 4.22465604,6.57636446 C4.40513895,6.57636446 4.56123918,6.64229613 4.69299317,6.77405011 L7.04470159,9.12568565 L11.2901686,4.89064237 C11.4219954,4.75881549 11.5780228,4.69288383 11.7583964,4.69288383 C11.9386241,4.69288383 12.0949066,4.75881549 12.2266241,4.89064237 L13.1735399,5.82720729 C13.2986241,5.952 13.3608747,6.1115262 13.3608747,6.30571298 C13.3608747,6.49308428 13.2986241,6.64918451 13.1733941,6.77405011 L13.1733941,6.77405011 Z" id="Shape" fill="#EEEEEE" sketch:type="MSShapeGroup"></path>
            <g id="Shape" transform="translate(17.000000, 0.000000)" fill="#75B51B" sketch:type="MSShapeGroup">
                <path d="M14.9114533,3.98006378 C14.1968109,2.75575399 13.2274442,1.78638724 12.0030979,1.07178132 C10.778533,0.357211845 9.44174943,0 7.99172665,0 C6.54184966,0 5.20466515,0.357211845 3.98031891,1.07178132 C2.75589977,1.7862779 1.78653303,2.75564465 1.07189066,3.98006378 C0.357211845,5.20455581 0,6.54174032 0,7.99150797 C0,9.44134852 0.357321185,10.7783144 1.07178132,12.0028793 C1.78638724,13.2271891 2.75575399,14.1965558 3.98017312,14.9112346 C5.20466515,15.6257677 6.54174032,15.9830159 7.99158087,15.9830159 C9.44142141,15.9830159 10.7786424,15.6257677 12.0030615,14.9112346 C13.2274077,14.1968109 14.196738,13.2271891 14.9113075,12.0028793 C15.6257677,10.7784237 15.9829431,9.44127563 15.9829431,7.99150797 C15.9829795,6.54159453 15.6257677,5.20437358 14.9114533,3.98006378 L14.9114533,3.98006378 Z M13.1733941,6.77405011 L7.52328018,12.4242005 C7.3914533,12.5561367 7.232,12.6220319 7.04459226,12.6220319 C6.86425513,12.6220319 6.70822779,12.5561367 6.57636446,12.4242005 L2.80940319,8.65745786 C2.68468337,8.53248292 2.62217768,8.37671071 2.62217768,8.18923007 C2.62217768,7.99504328 2.68446469,7.8353713 2.80940319,7.71046925 L3.75631891,6.77405011 C3.88829157,6.64225968 4.04417312,6.57636446 4.22465604,6.57636446 C4.40513895,6.57636446 4.56123918,6.64229613 4.69299317,6.77405011 L7.04470159,9.12568565 L11.2901686,4.89064237 C11.4219954,4.75881549 11.5780228,4.69288383 11.7583964,4.69288383 C11.9386241,4.69288383 12.0949066,4.75881549 12.2266241,4.89064237 L13.1735399,5.82720729 C13.2986241,5.952 13.3608747,6.1115262 13.3608747,6.30571298 C13.3608747,6.49308428 13.2986241,6.64918451 13.1733941,6.77405011 L13.1733941,6.77405011 Z"></path>
            </g>
            <path d="M48.8943964,3.98006378 C48.179754,2.75575399 47.2103872,1.78638724 45.986041,1.07178132 C44.7614761,0.357211845 43.4246925,0 41.9746697,0 C40.5247927,0 39.1876082,0.357211845 37.963262,1.07178132 C36.7388428,1.7862779 35.7694761,2.75564465 35.0548337,3.98006378 C34.3401549,5.20455581 33.9829431,6.54174032 33.9829431,7.99150797 C33.9829431,9.44134852 34.3402642,10.7783144 35.0547244,12.0028793 C35.7693303,13.2271891 36.738697,14.1965558 37.9631162,14.9112346 C39.1876082,15.6257677 40.5246834,15.9830159 41.9745239,15.9830159 C43.4243645,15.9830159 44.7615854,15.6257677 45.9860046,14.9112346 C47.2103508,14.1968109 48.1796811,13.2271891 48.8942506,12.0028793 C49.6087107,10.7784237 49.9658861,9.44127563 49.9658861,7.99150797 C49.9659226,6.54159453 49.6087107,5.20437358 48.8943964,3.98006378 L48.8943964,3.98006378 Z M45.7413394,9.87476993 C45.8731663,10.006451 45.9391708,10.1628793 45.9391708,10.3432528 C45.9391708,10.5303326 45.8731663,10.6900046 45.7413394,10.8216856 L44.8049203,11.7583964 C44.6732027,11.8900774 44.5135672,11.9559362 44.3261959,11.9559362 C44.1458588,11.9559362 43.9895763,11.8900774 43.8579681,11.7583964 L41.9745604,9.87476993 L40.0910797,11.7583964 C39.9592893,11.8900774 39.8032255,11.9559362 39.6228519,11.9559362 C39.4355171,11.9559362 39.2759909,11.8900774 39.144164,11.7583964 L38.2075991,10.8216856 C38.0758087,10.6900046 38.0099134,10.5303326 38.0099134,10.3432528 C38.0099134,10.1629157 38.0758451,10.0064875 38.2075991,9.87476993 L40.0910797,7.99147153 L38.2075991,6.10799089 C38.0758087,5.97634624 38.0099134,5.82013667 38.0099134,5.6397631 C38.0099134,5.45242825 38.0758451,5.29290205 38.2075991,5.16107517 L39.144164,4.22465604 C39.2759909,4.0928656 39.4355171,4.02697039 39.6228519,4.02697039 C39.8032255,4.02697039 39.9592893,4.09290205 40.0910797,4.22465604 L41.9745604,6.10799089 L43.8579681,4.22465604 C43.9895399,4.0928656 44.1458223,4.02697039 44.3261959,4.02697039 C44.5135672,4.02697039 44.6732027,4.09290205 44.8049203,4.22465604 L45.7413394,5.16107517 C45.8731663,5.29290205 45.9391708,5.45242825 45.9391708,5.6397631 C45.9391708,5.82010023 45.8731663,5.97634624 45.7413394,6.10799089 L43.8579681,7.99147153 L45.7413394,9.87476993 L45.7413394,9.87476993 Z" id="Shape" fill="#DE3F53" sketch:type="MSShapeGroup"></path>
        </g>
    </g>
</svg>